<svg xmlns="http://www.w3.org/2000/svg" viewBox="0 0 77.67 77.67"><defs><style>.a{fill:#f5de19;}</style></defs><title>javascript-default</title><rect class="a" width="77.67" height="77.67"/><path d="M103.34,62c1.56,2.55,3.6,4.43,7.2,4.43,3,0,5-1.51,5-3.6,0-2.5-2-3.39-5.31-4.85l-1.82-.78c-5.27-2.24-8.77-5.05-8.77-11,0-5.47,4.17-9.64,10.69-9.64,4.64,0,8,1.62,10.38,5.84L115,46.07c-1.25-2.24-2.6-3.13-4.7-3.13a3.18,3.18,0,0,0-3.49,3.13c0,2.19,1.36,3.08,4.49,4.43l1.82,0.78c6.2,2.66,9.7,5.37,9.7,11.47,0,6.57-5.16,10.17-12.09,10.17-6.78,0-11.16-3.23-13.3-7.46Zm-25.78.63c1.15,2,2.19,3.75,4.7,3.75s3.91-.94,3.91-4.59V37h7.3V61.91c0,7.56-4.43,11-10.9,11-5.84,0-9.23-3-10.95-6.67Z" transform="translate(-51.16 -1.33)"/></svg>